<svg width="200" height="200" viewBox="0 0 200 200" xmlns="http://www.w3.org/2000/svg"><path d="M99.714 128.286c15.78 0 28.572-12.792 28.572-28.572s-12.792-28.57-28.572-28.57-28.57 12.79-28.57 28.57c0 15.78 12.79 28.572 28.57 28.572zm-3.57-85.723c0-1.968 1.602-3.563 3.57-3.563 1.973 0 3.572 1.593 3.572 3.563v14.303c0 1.968-1.603 3.563-3.572 3.563-1.972 0-3.57-1.595-3.57-3.564V42.563zm0 100c0-1.968 1.602-3.563 3.57-3.563 1.973 0 3.572 1.593 3.572 3.563v14.303c0 1.968-1.603 3.563-3.572 3.563-1.972 0-3.57-1.595-3.57-3.564v-14.303zm-53.58-39.277c-1.97 0-3.564-1.603-3.564-3.572 0-1.972 1.593-3.57 3.563-3.57h14.303c1.968 0 3.563 1.602 3.563 3.57 0 1.973-1.595 3.572-3.564 3.572H42.563zm100 0c-1.97 0-3.564-1.603-3.564-3.572 0-1.972 1.593-3.57 3.563-3.57h14.303c1.968 0 3.563 1.602 3.563 3.57 0 1.973-1.595 3.572-3.564 3.572h-14.303zM58.57 64.34c-1.395-1.396-1.392-3.66 0-5.052 1.395-1.394 3.657-1.393 5.05 0l7.578 7.577c1.394 1.394 1.39 3.658 0 5.05-1.396 1.395-3.658 1.394-5.05 0L58.57 64.34zm68.185 68.187c-1.395-1.394-1.392-3.658 0-5.05 1.395-1.395 3.657-1.394 5.05 0l7.577 7.577c1.395 1.394 1.392 3.658 0 5.05-1.395 1.394-3.657 1.393-5.05 0l-7.577-7.577zm-62.417 8.33c-1.394 1.395-3.658 1.39-5.05 0-1.394-1.395-1.393-3.657 0-5.05l7.577-7.578c1.394-1.395 3.658-1.392 5.05 0 1.395 1.395 1.394 3.657 0 5.05l-7.577 7.577zm68.19-68.178c-1.395 1.393-3.66 1.39-5.05-.002-1.396-1.394-1.395-3.657 0-5.05l7.576-7.577c1.394-1.393 3.658-1.39 5.05.002 1.395 1.394 1.394 3.657 0 5.05l-7.577 7.577z" fill="#FCDE00" fill-rule="evenodd"/></svg>
