<svg width="200" height="200" viewBox="0 0 200 200" xmlns="http://www.w3.org/2000/svg"><g fill="#FFF" fill-rule="evenodd"><path d="M125 128.57c-25.643 0-46.43-20.784-46.43-46.427 0-10.682 3.648-20.493 9.712-28.343-25.468 2.314-45.425 23.7-45.425 49.77 0 27.616 22.386 50 50 50 19.168 0 35.8-10.795 44.19-26.634-3.847 1.032-7.872 1.635-12.047 1.635zM146.07 67.645L131 65.857l15.07-1.788L147.856 49l1.788 15.07 15.068 1.787-15.068 1.788-1.788 15.068M114.658 49.056l-10.105-1.2 10.105-1.198 1.2-10.105 1.198 10.105 10.104 1.2-10.104 1.198-1.2 10.104"/></g></svg>
