<svg width="200" height="200" viewBox="0 0 200 200" xmlns="http://www.w3.org/2000/svg"><g fill="#FFF" fill-rule="evenodd"><rect opacity=".5" x="57.143" y="150" width="82.143" height="7.143" rx="2" class="cd-f-l"/><rect opacity=".5" x="57.143" y="132.143" width="82.143" height="7.143" rx="2" class="cd-f-l"/><path d="M128.57 60.714c-1.07 0-2.124.072-3.166.186-4.183-14.536-17.558-25.186-33.44-25.186-19.232 0-34.82 15.59-34.82 34.822 0 1.607.145 3.182.36 4.728C47.196 76.82 39.286 85.69 39.286 96.43c0 11.83 9.596 21.427 21.428 21.427h67.857c15.78 0 28.573-12.793 28.573-28.57 0-15.78-12.793-28.573-28.572-28.573z" opacity=".8" class="cd-f"/></g></svg>
