<svg width="200" height="200" viewBox="0 0 200 200" xmlns="http://www.w3.org/2000/svg"><g fill="none" fill-rule="evenodd"><path d="M79 122.4c14 0 25.4-11.4 25.4-25.4 0-14-11.4-25.4-25.4-25.4C65 71.6 53.6 83 53.6 97c0 14 11.4 25.4 25.4 25.4zm-3.2-76.2c0-1.8 1.4-3.2 3.2-3.2 1.8 0 3.2 1.4 3.2 3.2V59c0 1.6-1.4 3-3.2 3-1.8 0-3.2-1.4-3.2-3V46zm-47.6 54c-1.8 0-3.2-1.4-3.2-3.2 0-1.8 1.4-3.2 3.2-3.2H41c1.6 0 3 1.4 3 3.2 0 1.8-1.4 3.2-3 3.2H28zm14.2-34.7c-1.2-1.2-1.2-3.2 0-4.5 1.2-1.2 3.3-1.2 4.5 0l6.6 6.8c1.3 1.2 1.3 3.2 0 4.5-1.2 1.2-3.2 1.2-4.5 0l-6.6-6.8zm5 68c-1 1.3-3 1.3-4.4 0-1.2-1-1.2-3.2 0-4.4l6.8-6.6c1.2-1.3 3.2-1.3 4.5 0 1.2 1.2 1.2 3.2 0 4.5l-6.8 6.6zM108.3 73c-1.3 1.2-3.3 1.2-4.5 0-1.2-1.3-1.2-3.3 0-4.5l6.7-6.8c1.3-1.2 3.3-1.2 4.5 0 1.2 1.3 1.2 3.3 0 4.5L108 73z" fill="#FCDE00"/><path d="M171.4 130.4c0-14.8-12-26.8-26.8-26.8H143c-4-12.4-15.8-21.5-29.6-21.5C96 82 82 96 82 113.5l.2 1.2c-10.2 1.7-18 10.5-18 21 0 12 9.7 21.5 21.5 21.5h60.7c14-1 25-12.4 25-26.6z" fill="#FFF" opacity=".8"/></g></svg>
