<svg width="200" height="200" viewBox="0 0 200 200" xmlns="http://www.w3.org/2000/svg"><g fill="none" fill-rule="evenodd"><path d="M79 122.4c14 0 25.4-11.4 25.4-25.4 0-14-11.4-25.4-25.4-25.4C65 71.6 53.6 83 53.6 97c0 14 11.4 25.4 25.4 25.4zM75.8 43h6.4v19h-6.4V43zM25 100.2v-6.4h19v6.4H25zm15.2-37l4.5-4.4L56 70l-4.6 4.5-11.2-11.2zm5 72.6l-4.4-4.5L52 120l4.5 4.6-11.2 11.2zM106 75.2l-4.6-4.5 11.3-11.2 4.5 4.5L106 75.2z" fill="#FCDE00"/><path d="M171.4 130.4c0-14.8-12-26.8-26.8-26.8H143c-4-12.4-15.8-21.5-29.6-21.5C96 82 82 96 82 113.5l.2 1.2c-10.2 1.7-18 10.5-18 21 0 12 9.7 21.5 21.5 21.5h60.7c14-1 25-12.4 25-26.6z" fill="#FFF" opacity=".8"/></g></svg>
