<svg width="200" height="200" viewBox="0 0 200 200" xmlns="http://www.w3.org/2000/svg"><g fill="none" fill-rule="evenodd"><path d="M164.7 85c-2.2 14.7-15 26-30.2 26-16.8 0-30.5-13.7-30.5-30.5 0-15.3 11.3-28 26-30.2-.6 2.5-1 5-1 7.7 0 15.5 12.5 28 28 28 2.7 0 5.2-.4 7.7-1z" fill="#FFF"/><path d="M153.6 126.8c0-14.8-12-26.8-26.8-26.8h-1.6c-4-12.4-15.8-21.4-29.7-21.4-17.2 0-31.2 14-31.2 31.2v1.2c-10 1.7-18 10.5-18 21 0 12 9.7 21.6 21.6 21.6h60.6c14-1 25-12.6 25-26.8z" fill="#9FA2B0" opacity=".8"/><path fill="#FFF" d="M54.2 67.4l-9.2-1 9.2-1.2 1-9.2 1.2 9.2 9.3 1-9.3 1.2-1 9.3M40.5 95l-6.6-.7 6.5-.8.8-6.6.8 6.5 6.7.8-6.6.8-.7 6.7"/></g></svg>
