<svg width="200" height="200" viewBox="0 0 200 200" xmlns="http://www.w3.org/2000/svg"><g fill="none" fill-rule="evenodd"><path d="M128.6 60.7c-1 0-2.2 0-3.2.2-4.2-14.6-17.6-25.3-33.4-25.3-19.3 0-35 15.6-35 34.8 0 1.6.3 3.2.5 4.8-10.3 1.5-18.2 10.4-18.2 21 0 12 9.6 21.6 21.4 21.6h68c15.7 0 28.4-13 28.4-28.7 0-15.8-12.7-28.6-28.4-28.6z" fill="#FFF" opacity=".8" class="cd"/><path d="M48 148.5c-1.5-1-1.8-3-.8-4.3l10.8-15c1-1.3 3-1.6 4.3-.6 1.4 1 1.7 3 .7 4.4l-10.7 14.8c-1 1.4-3 1.7-4.4.7zm44.4 2c-1.4-1-1.7-3-.7-4.3l13-18c1-1.4 3-1.7 4.5-.7 1.4 1 1.7 3 .7 4.3l-13.2 18c-1 1.5-3 1.8-4.4.8zm15.4 7.5c-1.4-1-1.7-3-.6-4.4l18.3-25.3c1-1.4 3-1.7 4.4-.7 1.3 1 1.6 3 .6 4.4l-18.4 25.3c-1 1.4-3 1.7-4.4.7zM66 160c-1.4-1-1.7-3-.7-4.3L79 137c1-1.5 3-1.8 4.3-.8 1.4 1 1.7 3 .7 4.4l-13.7 18.7c-1 1.4-3 1.8-4.3.7zm73-6.2c-1.5-1-1.8-3-.8-4.4l2.6-3.6c1-1.4 3-1.7 4.4-.7 1.4 1.2 1.7 3 .7 4.5l-2.7 3.6c-1 1.5-3 1.8-4.4.8z" fill="#5AC8FA"/></g></svg>
