<svg width="200" height="200" viewBox="0 0 200 200" xmlns="http://www.w3.org/2000/svg"><g fill="none" fill-rule="evenodd"><path d="M128.6 60.7c-1 0-2.2 0-3.2.2-4.2-14.6-17.6-25.3-33.4-25.3-19.3 0-35 15.6-35 34.8 0 1.6.3 3.2.5 4.8-10.3 1.5-18.2 10.4-18.2 21 0 12 9.6 21.6 21.4 21.6h68c15.7 0 28.4-13 28.4-28.7 0-15.8-12.7-28.6-28.4-28.6z" fill="#FFF" opacity=".8" class="cd"/><path d="M45.4 146.7l14.4-20 5 3.8-14.4 19.8-5-3.6zm44.5 2l16.7-23 5 3.6-16.8 23-5-3.5zm15.3 7.4l22-30.2 5 3.7-22 30.3-5-3.7zm-42 2.2L81 134.4l5 3.6-17.3 24-5-3.8zm73-6.2l6.4-8.7 5 3.7-6.3 8.6-5-3.6z" fill="#5AC8FA"/></g></svg>
