<svg width="200" height="200" viewBox="0 0 200 200" xmlns="http://www.w3.org/2000/svg"><g fill="none" fill-rule="evenodd"><path d="M100.5 128.6c-14.6 0-26.6 11-28.4 25H129c-1.8-14-13.8-25-28.3-25zm-4-29c0-2 1.7-3.6 3.7-3.6s3.6 1.6 3.6 3.6V114c0 1.8-1.6 3.4-3.6 3.4s-3.6-1.6-3.6-3.5V99.5zM59 121.3c-1.3-1.4-1.3-3.6 0-5 1.4-1.4 3.7-1.4 5 0l7.7 7.6c1.4 1.3 1.4 3.5 0 5-1.4 1.3-3.7 1.3-5 0l-7.7-7.7zm74 8.4c-1.4 1.4-3.7 1.4-5 0-1.4-1.4-1.4-3.7 0-5l7.5-7.6c1.4-1.3 3.7-1.3 5 0 1.5 1.4 1.5 3.7 0 5l-7.5 7.7z" fill="#FCDE00"/><rect fill="#FFF" x="32" y="153" width="135.7" height="7.1" rx="2"/><path d="M116.8 54.7c-.8-.7-2-.7-2.8 0l-10 10V38c0-1-1-2-2-2h-3.2c-1 0-2 1-2 2v26.7l-10.2-10c-.7-1-2-1-2.8 0l-2.2 2c-.8 1-.8 2 0 3L99 77c.8.8 2 .8 2.8 0L119 59.8c.8-.8.8-2 0-2.8l-2.2-2.3z" fill="#FFF"/></g></svg>
