<svg width="200" height="200" viewBox="0 0 200 200" xmlns="http://www.w3.org/2000/svg"><g fill="none" fill-rule="evenodd"><path d="M128.3 54c-1 0-2 0-3.2.2C121 39.6 107.7 29 91.8 29 72.4 29 57 44.6 57 63.8c0 1.6 0 3.2.2 4.8C47 70 39 79 39 89.6c0 12 9.6 21.5 21.4 21.5h68c15.7 0 28.5-12.7 28.5-28.4 0-15.8-13-28.6-28.7-28.6z" fill="#FFF" opacity=".8" class="cd"/><path d="M99.7 173l21.2-35.2 5.2 3.2-21 35.2-5.5-3.2zm32.6-24l14.5-24 5.3 3-14.3 24.2-5.4-3.2zm-82 24l16.5-27.6 5.4 3.2-16.6 27.6-5.3-3.2zM45 146.7L57.6 126l5.4 3.3L50.4 150l-5.4-3.3zM79 166.2l10.2-17 5.3 3.4-10 16.8-5.5-3.2z" fill="#5AC8FA"/><path fill="#FFF" d="M130 106.2l-2.6-4.5-8.5 5-15.5-9 15.4-9 8.4 5 2.6-4.5-6-3.4 9-5.2-2.5-4.5-9 5.3v-6.8h-5.2v9.8l-15.5 9v-18l8.6-4.8-2.6-4.5-6 3.4V59h-5v10.4l-6-3.4-2.6 4.5 8.5 5V93l-15.5-9v-9.7h-5v6.8L66 76l-2.7 4.6 9 5.2-6 3.4 2.7 4.5 8.5-5 15.4 9-15.3 9-8.6-5-2.4 4.5 6 3.4-9 5.2 2.5 4.5 9-5.2v7h5.2v-10l15.5-8.8V120l-8.5 5 2.6 4.4 6-3.4v10.4h5V126l6 3.4 2.6-4.5-8.6-5v-17.8l15.5 9v9.7h5.2v-7l9 5.3 2.6-4.5-9-5.2"/></g></svg>
