<svg width="200" height="200" viewBox="0 0 200 200" xmlns="http://www.w3.org/2000/svg"><g fill="none" fill-rule="evenodd"><path d="M128.3 54c-1 0-2 0-3.2.2C121 39.6 107.7 29 91.8 29 72.4 29 57 44.6 57 63.8c0 1.6 0 3.2.2 4.8C47 70 39 79 39 89.6c0 12 9.6 21.5 21.4 21.5h68c15.7 0 28.5-12.7 28.5-28.4 0-15.8-13-28.6-28.7-28.6z" fill="#FFF" opacity=".8" class="cd"/><path d="M102.4 174.6c-1.5-1-2-2.8-1-4.3l18-29.8c.8-1.5 2.7-2 4.2-1 1.5.8 2 2.7 1 4.2l-18 29.8c-.8 1.5-2.7 2-4.2 1zm32.6-24c-1.5-1-2-2.8-1-4.3l11.2-18.8c1-1.4 2.8-2 4.3-1 1.4 1 2 2.8 1 4.2l-11.2 18.8c-1 1.5-2.8 2-4.3 1zm-82 24c-1.5-1-2-2.8-1-4.3L65 148c1-1.4 2.8-2 4.3-1s2 2.8 1 4.3l-13.3 22.2c-.8 1.5-2.8 2-4.2 1zm-5.2-26.3c-1.5-1-2-2.8-1-4.3l9-15.3c1-1.5 3-2 4.4-1 1.5.8 2 2.8 1 4.2l-9 15.2c-1 1.5-3 2-4.4 1zm33.7 19.5c-1.5-1-2-2.8-1-4.3l6.8-11.5c1-1.5 3-2 4.3-1 1.5.8 2 2.8 1 4.2L86 166.7c-1 1.5-2.8 2-4.3 1z" fill="#5AC8FA"/><path d="M128.3 107.2c1-.6 1.2-1.8.7-2.7l-.6-1c-.5-1-1.8-1.3-2.7-.8l-6.8 4-15.5-9 15.4-9 6.7 4c1 .5 2.2.2 2.7-.7l.6-1c.5-1 .2-2.2-.7-2.8l-4.2-2.4 7.4-4.2c1-.6 1.2-1.8.7-2.7l-.5-1.2c-.5-1-1.8-1.2-2.7-.7l-7.3 4.3v-4.8c0-1-1-2-2-2h-1.2c-1 0-2 1-2 2v7.8l-15.5 9v-18l6.8-3.8c1-.6 1.3-1.8.8-2.8l-.6-1c-.6-1-1.8-1.3-2.8-.7l-4.2 2.4V61c0-1-1-2-2-2h-1c-1.2 0-2 1-2 2v8.4L91.4 67c-1-.6-2.2-.2-2.7.7l-.6 1c-.6 1-.2 2.2.7 2.8l6.7 4V93l-15.5-9v-7.7c0-1-1-2-2-2h-1c-1.2 0-2 1-2 2v4.8L67.7 77c-1-.5-2.2 0-2.7.8l-.5 1c-.6 1-.3 2.2.7 2.8l7.3 4.2-4.2 2.4c-1 .6-1.3 1.8-.7 2.7l.5 1c.7 1 2 1.2 3 .7l6.7-4 15.4 9-15.3 9-6.8-4c-1-.5-2.3-.2-3 .8l-.4 1c-.6 1-.3 2 .7 2.7l4.2 2.4-7.3 4.2c-1 .6-1.3 1.8-.7 2.7l.6 1c.6 1 1.8 1.3 2.8.8L75 114v5c0 1 1 2 2 2h1.2c1 0 2-1 2-2v-8l15.5-8.8V120l-6.8 4c-1 .5-1.4 1.7-.8 2.7l.6 1c.5 1 1.8 1.3 2.7.7l4.2-2.4v8.4c0 1 1 2 2 2h1c1.3 0 2-1 2-2V126l4.3 2.4c1 .6 2.2.2 2.8-.7l.6-1c.5-1 .2-2.2-.8-2.8l-6.8-4v-17.8l15.5 9v7.7c0 1 1 2 2 2h1.2c1 0 2-1 2-2v-5l7.3 4.3c1 .5 2.2.2 2.7-.8l.6-1c.6-1 .3-2-.6-2.7l-7.3-4.2 4.3-2.4z" fill="#FFF"/></g></svg>
