<svg width="25" height="25" viewBox="0 0 25 25" xmlns="http://www.w3.org/2000/svg"><path d="M21.8 15l-.8-1.3-2.5 1.5-4.6-2.7 4.5-2.7 2.5 1.5.8-1.3L20 9l2.7-1.6L22 6 19 7.7v-2h-1.5v3L13 11V6l2.6-1.6L15 3l-2 1V1h-1.4v3L9.8 3 9 4.5 11.6 6V11L7 8.5v-3H5.4v2L2.8 6.2 2 7.5 4.7 9 3 10l.7 1.3 2.5-1.5 4.6 2.7-4.6 2.7-2.5-1.5L3 15l1.7 1L2 17.6l.8 1.3 2.6-1.6v2H7v-3l4.6-2.6V19L9 20.7l.8 1.3 1.8-1v3H13v-3l2 1 .6-1.4L13 19V14l4.7 2.7v3h1.5v-2l2.7 1.4.7-1.4L20 16z" stroke-width=".5" stroke="#FFF" fill="#FFF" fill-rule="evenodd"/></svg>
