<svg width="200" height="200" viewBox="0 0 200 200" xmlns="http://www.w3.org/2000/svg"><path d="M142.4 112.3c1-.5 1.2-1.7.7-2.7l-1.5-2.7c-.5-1-1.8-1.4-2.7-1l-10 6-21.4-12.4 21.3-12.4 10 5.8c1 .6 2.2.2 2.8-.7l1.6-2.8c.6-1 .3-2-.7-2.7L136 83l10.6-6c1-.7 1.3-2 .8-2.8l-1.6-2.8c-.6-1-1.8-1.3-2.7-.7L132.4 77v-7.6c0-1-1-2-2-2H127c-1 0-1.8 1-1.8 2V81l-21.5 12.4V68.7l10-5.8c1-.7 1.4-2 .8-3l-1.5-2.6c-.6-1-1.8-1.3-2.8-.7l-6.5 3.7V48c0-1-1-2-2-2h-3c-1.2 0-2 1-2 2v12.4L90 56.7c-.8-.6-2-.3-2.6.7L85.8 60c-.5 1-.2 2.3.8 3l10 5.7v24.6L75.2 81V69.4c0-1-1-2-2-2H70c-1 0-2 1-2 2V77l-10.7-6.3c-1-.6-2.2-.3-2.7.7L53 74c-.6 1-.2 2.3.7 3l10.8 6L58 87c-1 .6-1.3 1.8-.7 2.7l1.6 2.8c.4 1 1.6 1.3 2.6.7l10-5.8L93 99.6 71.6 112l-10-6c-1-.4-2.2 0-2.7 1l-1.7 2.6c-.6 1-.3 2.2.7 2.7l6.5 3.8-10.8 6.3c-1 .5-1.2 1.7-.7 2.7l1.6 2.7c.5 1 1.8 1.3 2.7.8l10.7-6.2v7.4c0 1 1 2 2 2h3.2c1 0 2-1 2-2V118L96.6 106v24.7l-10 5.8c-1 .5-1.3 1.7-.8 2.7l1.6 2.7c.6 1 1.8 1.3 2.8.8l6.4-3.7V151c0 1.2 1 2 2 2h3c1.2 0 2-.8 2-2v-12.3l6.6 3.8c1 .5 2.2.2 2.7-.7l1.5-2.8c.6-1 .2-2.2-.7-2.7l-10-5.8v-24.8L125 118v11.7c0 1 .8 2 2 2h3c1.2 0 2-1 2-2v-7.5l11 6.2c.8.6 2 .3 2.6-.7l1.6-2.7c.5-1 .2-2.2-.8-2.8L136 116l6.4-3.7z" fill="#FFF" fill-rule="evenodd"/></svg>
