<svg width="200" height="200" viewBox="0 0 200 200" xmlns="http://www.w3.org/2000/svg"><path d="M144 111.3l-3.5-6.2-11.8 7-21.3-12.4 21.3-12.4 11.8 6.8 3.6-6.2-8-4.7 12.4-7-3.6-6.3-12.5 7.2v-9.6h-7V81l-21.6 12.4V68.7l11.8-6.8-3.5-6.3-8.3 4.7V46h-7v14.4l-8.3-4.7-3.6 6.2 11.8 6.7v24.6L75.2 81V67.4H68V77l-12.4-7.3L52 76l12.5 7-8.2 4.8L60 94l11.6-6.8L93 99.6 71.6 112 60 105l-3.7 6.3 8.2 4.8-12.5 7.3 3.6 6.2 12.4-7.2v9.4h7.2V118L96.6 106v24.7l-11.8 6.8 3.6 6.2 8.2-4.7V153h7v-14.3l8.3 4.8 3.5-6.2-11.8-6.8v-24.8l21.5 12.4v13.7h7v-9.5l12.6 7.2 3.6-6.2L136 116" fill="#FFF" fill-rule="evenodd"/></svg>
