<svg width="200" height="200" viewBox="0 0 200 200" xmlns="http://www.w3.org/2000/svg"><path d="M42.8 55.6c0-1 1-2 2-2H155c1.2 0 2 1 2 2v3c0 1.2-.8 2-2 2H45c-1 0-2-.8-2-2v-3zM57 73.4c0-1 1-2 2-2h78.3c1 0 2 1 2 2v3.2c0 1-1 2-2 2H59c-1 0-2-1-2-2v-3.2zm21.6 18c0-1.2 1-2 2-2h63.8c1 0 2 .8 2 2v3c0 1-1 2-2 2H80.6c-1 0-2-1-2-2v-3zM93 109c0-1.2.7-2 2-2h42.3c1 0 2 .8 2 2v3c0 1.2-1 2-2 2H95c-1.2 0-2-.8-2-2v-3zm3.4 17.8c0-1 1-2 2-2H123c1 0 2 1 2 2v3c0 1.2-1 2-2 2H98.4c-1 0-2-.8-2-2v-3zM93 141.3c0-1 .8-2 1.8-2h6.8c1 0 2 1 2 2v3c0 1.2-1 2-2 2h-6.8c-1 0-2-.8-2-2v-3z" fill="#FFF" fill-rule="evenodd"/></svg>
