<svg width="200" height="200" viewBox="0 0 200 200" xmlns="http://www.w3.org/2000/svg"><path d="M153.3 93.3c-3.6-2.6-8.2-4-14-4-3.5 0-6.8.3-9.7 1-7.3 2-14.7 2.7-21.6 2.5-9.2-.3-18.8-1.7-28.6-3-24.6-3-39.5 14.6-40 15.4l5 4.2s13-15.7 34.2-13c10 1.3 19.8 2.7 29.2 3 7.4.2 15.3-.4 23.4-2.6 2.4-.6 5.2-1 8.2-1 4.2.2 7.6 1 10 3 4.3 3 4.8 8 4.8 10.7 0 5.5-2.7 11-6.7 13.7-2.2 1.5-5.2 2.3-8.4 2.3-1.4 0-14.4-.4-14.6-12.5l-6.5.2c0 15 13.8 19 21 19 4.6 0 8.8-1.3 12.2-3.6 5.6-4 9.4-11.4 9.5-19 0-6.8-2.6-12.7-7.4-16.3zM76 78.6c9 1 18.5 3 27.7 4h1c5.8.5 12.2 1 18.2-1.6 6.7-3 10.2-9.3 9-16.5-1.3-6.7-7-14-15.7-14.4-.3 0-7.4-.8-13 4.6l4.8 4.7c3.2-3 7.3-2.7 7.6-2.6 5.4.3 9 4.8 9.7 9 .4 2 .6 6.7-5 9.2-4.5 2-9.8 1.4-15 1l-1-.2c-9.2-.7-18.7-3-27.8-3.8-24.3-2.4-36.7 12.2-37.2 12.7l4.8 4.6c.2 0 10.8-12.7 32-10.7zm5.5 28.5c-21.8 0-34.5 12.3-35 12.8l4.6 4.6c.2-.2 11.4-10.8 30.5-10.8 3.5 0 15.4.5 20.5 7.4 3 4.2 2.7 10.8-.7 14.8-3.2 3.7-8.8 5-14 3.5-2.6-1-4.4-3-5.4-6.6-.6-2-.4-4.4 1.2-7l-6-3.3c-2.4 3.3-2.6 8.5-1.7 12 1.5 5.7 5 9.5 10 11 2 .7 4.2 1 6.3 1 5.6 0 11-2.3 14.6-6.5 5.3-6.4 5.8-16 1-22.7-6.7-9.2-20.4-10.2-26-10.2z" fill="#FFF" fill-rule="evenodd" opacity=".5"/></svg>
